<svg version="1.1" id="Layer_1" xmlns="http://www.w3.org/2000/svg" xmlns:xlink="http://www.w3.org/1999/xlink" x="0px" y="0px"
	 width="100%" viewBox="0 0 1024 1024" enable-background="new 0 0 1024 1024" xml:space="preserve">
<path fill="#000000" opacity="1.000000" stroke="none" 
	d="
M399.916260,672.020996 
	C433.076508,689.925415 468.013824,701.278259 504.903656,706.784790 
	C522.708313,709.442444 540.590759,711.107849 558.585449,710.607849 
	C601.827087,709.406250 643.447815,701.245605 682.241455,681.183777 
	C691.016479,676.645813 700.233765,674.348816 710.179199,677.181152 
	C730.776611,683.046997 738.656433,706.920471 726.006409,725.191345 
	C721.125549,732.241150 714.130188,736.859070 707.129761,741.315796 
	C672.376709,763.441223 634.486450,777.304565 593.780945,783.371216 
	C523.457092,793.852173 457.415466,780.105469 395.075012,747.132080 
	C353.294647,725.033447 317.705261,695.341125 288.897339,657.692566 
	C282.512024,649.347717 278.893707,640.204346 281.284576,629.767334 
	C286.153503,608.512695 312.786743,600.862915 328.869141,616.061768 
	C338.066132,624.753479 346.726013,634.007446 356.430359,642.173035 
	C369.857208,653.470886 384.243286,663.354980 399.916260,672.020996 
z"/>
<path fill="#000000" opacity="1.000000" stroke="none" 
	d="
M776.656616,390.316010 
	C802.828979,415.043762 810.710388,445.151550 800.495667,478.537933 
	C790.379333,511.602539 766.871704,531.588318 732.099854,536.329163 
	C686.580566,542.535217 645.963318,511.025787 639.553162,465.234100 
	C633.043518,418.731598 664.084412,376.278259 710.131287,370.059021 
	C734.868896,366.717926 757.373108,373.246674 776.656616,390.316010 
z"/>
<path fill="#000000" opacity="1.000000" stroke="none" 
	d="
M432.884583,457.427826 
	C440.181458,472.336273 429.414032,497.178345 408.806641,498.778748 
	C401.827332,499.320740 394.978516,497.199280 388.093353,496.205872 
	C363.650024,492.679108 339.076538,492.076538 314.435913,492.067993 
	C285.742706,492.058075 257.359070,495.221313 229.095657,499.732819 
	C215.278748,501.938324 203.175049,496.678528 197.774231,485.646942 
	C191.836136,473.517883 194.795380,459.743286 205.531448,450.380615 
	C219.516327,438.184784 236.319672,431.396759 253.680389,425.828552 
	C279.520203,417.540802 306.172882,415.009308 333.049377,416.885223 
	C363.899506,419.038483 393.497192,426.272034 419.897644,443.422638 
	C425.263947,446.908783 429.986481,451.076965 432.884583,457.427826 
z"/>
<path fill="#000000" opacity="1.000000" stroke="none" 
	d="
M365.132965,275.637268 
	C376.321838,279.572296 386.221985,284.865021 394.088409,293.445709 
	C398.486420,298.242981 400.787506,303.835022 399.733551,310.337219 
	C398.168884,319.990265 389.219574,325.905396 377.871246,324.707275 
	C312.786804,317.835968 252.234818,331.896057 195.430023,363.766815 
	C178.281693,373.388031 161.643112,383.820526 145.025406,394.299683 
	C140.036301,397.445862 134.854431,399.795959 128.889008,400.508362 
	C121.923744,401.340240 115.802887,399.875214 111.472031,394.223450 
	C106.900459,388.257599 106.839378,381.503754 110.005180,374.871704 
	C114.698730,365.039215 122.512848,357.621094 130.345840,350.443695 
	C174.018768,310.426208 224.969589,284.746002 283.294373,274.134583 
	C309.626221,269.343842 336.072754,267.319763 362.370667,274.772247 
	C363.170959,274.999084 363.953857,275.287445 365.132965,275.637268 
z"/>
<path fill="#000000" opacity="1.000000" stroke="none" 
	d="
M786.524658,191.365738 
	C808.069885,196.682724 828.090881,204.837814 847.227844,215.101654 
	C872.408142,228.606781 895.152832,245.232666 912.871887,268.044861 
	C916.720520,272.999664 918.797180,278.466736 917.551392,284.767487 
	C915.798889,293.630951 908.184082,298.580872 899.299500,296.627167 
	C890.999207,294.801941 884.109070,289.880859 876.909912,285.782745 
	C844.954346,267.592285 811.960510,251.881287 776.161499,242.732285 
	C748.714172,235.717667 720.910645,232.920151 692.553467,234.878754 
	C681.816467,235.620331 670.994934,236.574066 660.156433,235.384796 
	C648.250305,234.078369 643.704712,226.332916 649.480713,215.845901 
	C657.744202,200.842438 671.502380,192.978729 687.443848,188.770905 
	C713.821777,181.808258 740.467163,182.363937 767.125061,187.157669 
	C773.498901,188.303833 779.797363,189.869186 786.524658,191.365738 
z"/>
</svg>